<?xml version="1.0" encoding="utf-8"?>
<!-- Generator: Adobe Illustrator 19.1.1, SVG Export Plug-In . SVG Version: 6.00 Build 0)  -->
<svg version="1.1" id="Calque_1" xmlns="http://www.w3.org/2000/svg" xmlns:xlink="http://www.w3.org/1999/xlink" x="0px" y="0px"
	 viewBox="-237 239 24 24" style="enable-background:new -237 239 24 24;" xml:space="preserve">
<style type="text/css">
	.st0{fill:#FFFFFF;}
</style>
<path class="st0" d="M-230,256.9h-1v-8.1c0.3-0.2,0.6-0.4,1-0.6V256.9z M-227,256.9h1v-9.2c-0.2,0.3-0.4,0.5-0.6,0.9l-0.4-0.2V256.9
	z M-229,256.9h1v-8.8c-0.5-0.1-0.6-0.1-1,0V256.9z M-233,256.9h1v-7c-0.3,0.5-0.6,1-0.7,1.5l-0.3-0.2V256.9z M-236,251.7
	c-0.6,0.5-1,1.4-1,2.3s0.4,1.7,1,2.3V251.7z M-217.1,251c-0.2-2.8-2.4-5.1-5.1-5.1c-1,0-2,0.3-2.8,0.9v10.1h9.1
	c1.6,0,2.9-1.4,2.9-3.1C-213,251.6-215.2,250.1-217.1,251z M-234,251c-0.3,0-0.5,0-1,0.1v5.7c0.4,0.1,0.6,0.1,1,0.1V251z"/>
</svg>
